<svg width="1440" height="267" viewBox="0 0 1440 267" fill="none" xmlns="http://www.w3.org/2000/svg">
<path d="M0 74.9598L48 69.6598C96 63.9598 192 53.9598 288 42.9598C384 31.9598 480 21.9598 576 53.6598C672 85.9598 768 159.96 864 154.96C960 149.96 1056 63.9598 1152 26.9598C1248 -10.0402 1344 -0.0401754 1392 5.65982L1440 10.9598V266.96H1392C1344 266.96 1248 266.96 1152 266.96C1056 266.96 960 266.96 864 266.96C768 266.96 672 266.96 576 266.96C480 266.96 384 266.96 288 266.96C192 266.96 96 266.96 48 266.96H0V74.9598Z" fill="#6E9F6F"/>
</svg>
